<?xml version="1.0" encoding="UTF-8" standalone="no"?>
<!-- Created with Inkscape (http://www.inkscape.org/) -->

<svg
   xmlns:dc="http://purl.org/dc/elements/1.1/"
   xmlns:cc="http://creativecommons.org/ns#"
   xmlns:rdf="http://www.w3.org/1999/02/22-rdf-syntax-ns#"
   xmlns:svg="http://www.w3.org/2000/svg"
   xmlns="http://www.w3.org/2000/svg"
   xmlns:sodipodi="http://sodipodi.sourceforge.net/DTD/sodipodi-0.dtd"
   xmlns:inkscape="http://www.inkscape.org/namespaces/inkscape"
   id="svg2"
   version="1.1"
   inkscape:version="0.48.4 r9939"
   xml:space="preserve"
   width="97.436249"
   height="51.950375"
   viewBox="0 0 97.436249 51.950375"
   sodipodi:docname="icon-white-transparent.svg"><metadata
     id="metadata8"><rdf:RDF><cc:Work
         rdf:about=""><dc:format>image/svg+xml</dc:format><dc:type
           rdf:resource="http://purl.org/dc/dcmitype/StillImage" /><dc:title /></cc:Work></rdf:RDF></metadata><defs
     id="defs6"><clipPath
       clipPathUnits="userSpaceOnUse"
       id="clipPath16"><path
         d="M 0,612 792,612 792,0 0,0 0,612 z"
         id="path18"
         inkscape:connector-curvature="0" /></clipPath></defs><sodipodi:namedview
     pagecolor="#ffffff"
     bordercolor="#666666"
     borderopacity="1"
     objecttolerance="10"
     gridtolerance="10"
     guidetolerance="10"
     inkscape:pageopacity="0"
     inkscape:pageshadow="2"
     inkscape:window-width="1366"
     inkscape:window-height="744"
     id="namedview4"
     showgrid="false"
     inkscape:zoom="0.7828172"
     inkscape:cx="-21.829397"
     inkscape:cy="-132.18461"
     inkscape:window-x="0"
     inkscape:window-y="24"
     inkscape:window-maximized="1"
     inkscape:current-layer="g10"
     fit-margin-top="0"
     fit-margin-left="0"
     fit-margin-right="0"
     fit-margin-bottom="0" /><g
     id="g10"
     inkscape:groupmode="layer"
     inkscape:label="Logo"
     transform="matrix(1.25,0,0,-1.25,-402.26245,413.34249)"><g
       id="g12"
       transform="translate(-128.62774,5.0583942)"
       inkscape:export-xdpi="90"
       inkscape:export-ydpi="90"><g
         id="g14"
         clip-path="url(#clipPath16)"><g
           id="g20"
           transform="translate(276.2563,316.749)" /><g
           id="g24"
           transform="translate(356.4204,286.6416)" /><g
           id="g28"
           transform="translate(439.4473,317.6729)" /><g
           id="g32"
           transform="translate(458.0117,286.6416)"><path
             d="m 0,0 c -0.863,-0.862 -1.91,-1.293 -3.141,-1.293 -1.232,0 -2.279,0.431 -3.14,1.293 -0.864,0.861 -1.293,1.908 -1.293,3.14 l 0,31.401 c 0,1.231 0.429,2.277 1.293,3.141 0.861,0.861 1.908,1.292 3.14,1.292 0.616,0 1.168,-0.124 1.662,-0.37 0.493,-0.247 0.985,-0.553 1.479,-0.922 3.939,-3.45 7.342,-6.159 10.205,-8.128 2.863,-1.972 5.481,-3.45 7.85,-4.434 2.369,-0.985 4.601,-1.601 6.697,-1.847 2.092,-0.246 4.338,-0.37 6.74,-0.37 2.401,0 4.631,0.107 6.696,0.325 2.062,0.214 4.25,0.815 6.556,1.8 2.311,0.984 4.897,2.462 7.76,4.433 2.863,1.97 6.293,4.71 10.299,8.221 1.045,0.861 2.09,1.292 3.138,1.292 1.231,0 2.278,-0.431 3.141,-1.292 0.859,-0.864 1.293,-1.91 1.293,-3.141 l 0,-31.401 c 0,-1.232 -0.434,-2.279 -1.293,-3.14 -0.863,-0.862 -1.91,-1.293 -3.141,-1.293 -1.232,0 -2.279,0.431 -3.138,1.293 -0.864,0.861 -1.295,1.908 -1.295,3.14 l 0,21.888 c -2.77,-2.217 -5.434,-4.063 -7.988,-5.542 -2.557,-1.477 -5.049,-2.664 -7.481,-3.555 -2.432,-0.894 -4.85,-1.524 -7.25,-1.893 -2.4,-0.369 -4.834,-0.554 -7.297,-0.554 -2.648,0 -5.187,0.185 -7.619,0.554 -2.434,0.369 -4.865,0.999 -7.297,1.893 -2.431,0.891 -4.894,2.078 -7.387,3.555 -2.494,1.479 -5.125,3.325 -7.898,5.542 l 0,-21.888 C 1.291,1.908 0.861,0.861 0,0"
             style="fill:#ffffff;fill-opacity:1;fill-rule:nonzero;stroke:none"
             id="path34"
             inkscape:connector-curvature="0" /></g><g
           id="g36"
           transform="translate(483.7793,289.7813)"><path
             d="M 0,0 C 0,1.602 0.553,2.956 1.66,4.064 2.77,5.174 4.123,5.727 5.725,5.727 7.326,5.727 8.68,5.174 9.787,4.064 10.898,2.956 11.451,1.602 11.451,0 11.451,-1.601 10.898,-2.954 9.787,-4.063 8.68,-5.171 7.326,-5.726 5.725,-5.726 4.123,-5.726 2.77,-5.171 1.66,-4.063 0.553,-2.954 0,-1.601 0,0"
             style="fill:#0d72b9;fill-opacity:1;fill-rule:nonzero;stroke:none"
             id="path38"
             inkscape:connector-curvature="0" /></g></g></g></g></svg>