<?xml version="1.0" encoding="UTF-8" standalone="no"?>
<!-- Created with Inkscape (http://www.inkscape.org/) -->

<svg
   xmlns:dc="http://purl.org/dc/elements/1.1/"
   xmlns:cc="http://creativecommons.org/ns#"
   xmlns:rdf="http://www.w3.org/1999/02/22-rdf-syntax-ns#"
   xmlns:svg="http://www.w3.org/2000/svg"
   xmlns="http://www.w3.org/2000/svg"
   xmlns:sodipodi="http://sodipodi.sourceforge.net/DTD/sodipodi-0.dtd"
   xmlns:inkscape="http://www.inkscape.org/namespaces/inkscape"
   id="svg2"
   version="1.1"
   inkscape:version="0.91 r13725"
   xml:space="preserve"
   width="1280"
   height="960"
   viewBox="0 0 1280 960"
   sodipodi:docname="Logo Blue BG.ai.svg"><metadata
     id="metadata8"><rdf:RDF><cc:Work
         rdf:about=""><dc:format>image/svg+xml</dc:format><dc:type
           rdf:resource="http://purl.org/dc/dcmitype/StillImage" /><dc:title></dc:title></cc:Work></rdf:RDF></metadata><defs
     id="defs6"><clipPath
       clipPathUnits="userSpaceOnUse"
       id="clipPath18"><path
         d="m 0,14400 14400,0 L 14400,0 0,0 0,14400 Z"
         id="path20"
         inkscape:connector-curvature="0" /></clipPath></defs><sodipodi:namedview
     pagecolor="#ffffff"
     bordercolor="#666666"
     borderopacity="1"
     objecttolerance="10"
     gridtolerance="10"
     guidetolerance="10"
     inkscape:pageopacity="0"
     inkscape:pageshadow="2"
     inkscape:window-width="958"
     inkscape:window-height="715"
     id="namedview4"
     showgrid="false"
     inkscape:zoom="0.23984375"
     inkscape:cx="567.03583"
     inkscape:cy="480"
     inkscape:window-x="124"
     inkscape:window-y="0"
     inkscape:window-maximized="0"
     inkscape:current-layer="g10" /><g
     id="g10"
     inkscape:groupmode="layer"
     inkscape:label="Logo Blue BG"
     transform="matrix(1.25,0,0,-1.25,-8360.625,9479.375)"><path
       d="m 7486.827,7095.591 -580.52,0 0,196.648 580.52,0 0,-196.648 z"
       style="fill:#0071bc;fill-opacity:1;fill-rule:nonzero;stroke:none"
       id="path12"
       inkscape:connector-curvature="0" /><g
       id="g14"><g
         id="g16"
         clip-path="url(#clipPath18)"><g
           id="g22"
           transform="translate(7074.9355,7205.8281)"><path
             d="m 0,0 0,-6.834 51.258,0 c 0.924,0 1.738,0.324 2.448,0.97 0.706,0.646 1.062,1.462 1.062,2.448 0,0.923 -0.356,1.723 -1.062,2.399 C 52.996,-0.339 52.182,0 51.258,0 L 0,0 Z m 50.888,8.866 c 1.724,0 3.341,-0.323 4.85,-0.97 1.508,-0.645 2.83,-1.523 3.97,-2.631 1.139,-1.109 2.032,-2.402 2.679,-3.879 0.646,-1.478 0.969,-3.079 0.969,-4.802 0,-1.726 -0.323,-3.325 -0.969,-4.803 -0.647,-1.478 -1.54,-2.771 -2.679,-3.88 -1.14,-1.107 -2.462,-1.986 -3.97,-2.631 -1.509,-0.647 -3.126,-0.97 -4.85,-0.97 L 0,-15.7 0,-26.968 c 0,-1.231 -0.446,-2.278 -1.338,-3.139 -0.893,-0.863 -1.926,-1.293 -3.096,-1.293 -1.231,0 -2.278,0.43 -3.139,1.293 -0.863,0.861 -1.293,1.908 -1.293,3.139 l 0,31.402 c 0,1.231 0.43,2.277 1.293,3.14 0.861,0.862 1.908,1.292 3.139,1.292 l 55.322,0 z"
             style="fill:#ffffff;fill-opacity:1;fill-rule:nonzero;stroke:none"
             id="path24"
             inkscape:connector-curvature="0" /></g><g
           id="g26"
           transform="translate(7155.0996,7175.7207)"><path
             d="m 0,0 c -0.862,-0.862 -1.909,-1.293 -3.14,-1.293 -1.231,0 -2.278,0.431 -3.139,1.293 -0.863,0.861 -1.293,1.908 -1.293,3.14 l 0,31.401 c 0,1.231 0.43,2.277 1.293,3.141 0.861,0.861 1.908,1.292 3.139,1.292 1.231,0 2.278,-0.431 3.14,-1.292 0.861,-0.864 1.294,-1.91 1.294,-3.141 l 0,-31.401 C 1.294,1.908 0.861,0.861 0,0"
             style="fill:#ffffff;fill-opacity:1;fill-rule:nonzero;stroke:none"
             id="path28"
             inkscape:connector-curvature="0" /></g><g
           id="g30"
           transform="translate(7238.1279,7206.752)"><path
             d="m 0,0 c -3.141,-2.771 -6.035,-5.157 -8.682,-7.157 -2.646,-2.002 -5.142,-3.681 -7.48,-5.033 2.338,-1.356 4.803,-3.035 7.389,-5.034 2.585,-2.002 5.509,-4.386 8.773,-7.157 0.492,-0.432 0.908,-0.956 1.246,-1.57 0.338,-0.616 0.51,-1.263 0.51,-1.941 0,-1.231 -0.432,-2.278 -1.293,-3.139 -0.863,-0.863 -1.91,-1.293 -3.143,-1.293 -1.047,0 -2.091,0.43 -3.138,1.293 -3.942,3.448 -7.25,6.141 -9.928,8.082 -2.68,1.939 -5.08,3.37 -7.203,4.293 -2.125,0.924 -4.143,1.492 -6.051,1.71 -1.908,0.214 -4.063,0.322 -6.465,0.322 l -2.031,0 c -2.031,-0.063 -3.911,-0.23 -5.635,-0.508 -1.724,-0.277 -3.588,-0.909 -5.587,-1.893 -2.001,-0.987 -4.28,-2.432 -6.834,-4.339 -2.556,-1.91 -5.68,-4.466 -9.375,-7.667 -0.493,-0.369 -0.985,-0.679 -1.477,-0.924 -0.493,-0.247 -1.048,-0.369 -1.662,-0.369 -1.233,0 -2.279,0.43 -3.14,1.293 -0.863,0.861 -1.293,1.908 -1.293,3.139 0,0.678 0.168,1.325 0.507,1.941 0.339,0.614 0.754,1.138 1.247,1.57 3.14,2.771 6.034,5.139 8.682,7.111 2.646,1.969 5.139,3.631 7.481,4.987 -2.342,1.353 -4.819,3.032 -7.435,5.033 -2.619,2 -5.527,4.417 -8.728,7.25 -0.493,0.431 -0.908,0.954 -1.247,1.57 -0.339,0.615 -0.507,1.262 -0.507,1.94 0,1.231 0.43,2.277 1.293,3.14 0.861,0.862 1.907,1.292 3.14,1.292 0.614,0 1.169,-0.124 1.662,-0.37 0.492,-0.246 0.984,-0.552 1.477,-0.922 3.756,-3.325 6.928,-5.943 9.513,-7.85 2.587,-1.91 4.909,-3.341 6.974,-4.296 2.06,-0.954 4.001,-1.568 5.818,-1.846 1.815,-0.277 3.8,-0.416 5.956,-0.416 l 1.385,0 c 2.404,0 4.527,0.093 6.373,0.278 1.847,0.184 3.818,0.739 5.912,1.662 2.092,0.922 4.478,2.355 7.158,4.294 2.678,1.939 6.018,4.664 10.02,8.174 1.047,0.862 2.091,1.292 3.138,1.292 1.233,0 2.28,-0.43 3.143,-1.292 C 1.324,5.787 1.756,4.741 1.756,3.51 1.756,2.832 1.584,2.185 1.246,1.57 0.908,0.954 0.492,0.431 0,0"
             style="fill:#ffffff;fill-opacity:1;fill-rule:nonzero;stroke:none"
             id="path32"
             inkscape:connector-curvature="0" /></g><g
           id="g34"
           transform="translate(7256.6904,7175.7207)"><path
             d="m 0,0 c -0.861,-0.862 -1.908,-1.293 -3.141,-1.293 -1.232,0 -2.279,0.431 -3.138,1.293 -0.864,0.861 -1.295,1.908 -1.295,3.14 l 0,31.401 c 0,1.231 0.431,2.277 1.295,3.141 0.859,0.861 1.906,1.292 3.138,1.292 0.618,0 1.17,-0.124 1.662,-0.37 0.493,-0.247 0.987,-0.553 1.479,-0.922 3.941,-3.45 7.342,-6.159 10.207,-8.128 2.861,-1.972 5.479,-3.45 7.85,-4.434 2.369,-0.985 4.601,-1.601 6.695,-1.847 2.092,-0.246 4.34,-0.37 6.74,-0.37 2.403,0 4.633,0.107 6.697,0.325 2.063,0.214 4.249,0.815 6.557,1.8 2.309,0.984 4.897,2.462 7.758,4.433 2.863,1.97 6.295,4.71 10.299,8.221 1.045,0.861 2.092,1.292 3.14,1.292 1.231,0 2.276,-0.431 3.139,-1.292 0.861,-0.864 1.293,-1.91 1.293,-3.141 l 0,-31.401 c 0,-1.232 -0.432,-2.279 -1.293,-3.14 -0.863,-0.862 -1.908,-1.293 -3.139,-1.293 -1.232,0 -2.279,0.431 -3.14,1.293 -0.864,0.861 -1.293,1.908 -1.293,3.14 l 0,21.888 c -2.772,-2.217 -5.436,-4.063 -7.99,-5.542 -2.555,-1.477 -5.049,-2.664 -7.481,-3.555 -2.432,-0.894 -4.848,-1.524 -7.25,-1.893 -2.4,-0.369 -4.834,-0.554 -7.297,-0.554 -2.646,0 -5.185,0.185 -7.617,0.554 -2.434,0.369 -4.865,0.999 -7.297,1.893 -2.432,0.891 -4.894,2.078 -7.389,3.555 -2.494,1.479 -5.125,3.325 -7.896,5.542 l 0,-21.888 C 1.293,1.908 0.861,0.861 0,0"
             style="fill:#ffffff;fill-opacity:1;fill-rule:nonzero;stroke:none"
             id="path36"
             inkscape:connector-curvature="0" /></g><g
           id="g38"
           transform="translate(7282.458,7178.8604)"><path
             d="m 0,0 c 0,1.602 0.555,2.956 1.662,4.064 1.109,1.11 2.463,1.663 4.063,1.663 1.601,0 2.957,-0.553 4.064,-1.663 1.109,-1.108 1.662,-2.462 1.662,-4.064 0,-1.601 -0.553,-2.954 -1.662,-4.063 -1.107,-1.108 -2.463,-1.663 -4.064,-1.663 -1.6,0 -2.954,0.555 -4.063,1.663 C 0.555,-2.954 0,-1.601 0,0"
             style="fill:#ffffff;fill-opacity:1;fill-rule:nonzero;stroke:none"
             id="path40"
             inkscape:connector-curvature="0" /></g></g></g></g></svg>