<?xml version="1.0" encoding="UTF-8" standalone="no"?>
<!-- Created with Inkscape (http://www.inkscape.org/) -->

<svg
   xmlns:dc="http://purl.org/dc/elements/1.1/"
   xmlns:cc="http://creativecommons.org/ns#"
   xmlns:rdf="http://www.w3.org/1999/02/22-rdf-syntax-ns#"
   xmlns:svg="http://www.w3.org/2000/svg"
   xmlns="http://www.w3.org/2000/svg"
   xmlns:sodipodi="http://sodipodi.sourceforge.net/DTD/sodipodi-0.dtd"
   xmlns:inkscape="http://www.inkscape.org/namespaces/inkscape"
   id="svg2"
   version="1.1"
   inkscape:version="0.48.4 r9939"
   xml:space="preserve"
   width="326.24551"
   height="51.950375"
   viewBox="0 0 326.24551 51.950375"
   sodipodi:docname="Logo.svg"><metadata
     id="metadata8"><rdf:RDF><cc:Work
         rdf:about=""><dc:format>image/svg+xml</dc:format><dc:type
           rdf:resource="http://purl.org/dc/dcmitype/StillImage" /><dc:title></dc:title></cc:Work></rdf:RDF></metadata><defs
     id="defs6"><clipPath
       clipPathUnits="userSpaceOnUse"
       id="clipPath16"><path
         d="M 0,612 792,612 792,0 0,0 0,612 z"
         id="path18"
         inkscape:connector-curvature="0" /></clipPath></defs><sodipodi:namedview
     pagecolor="#ffffff"
     bordercolor="#666666"
     borderopacity="1"
     objecttolerance="10"
     gridtolerance="10"
     guidetolerance="10"
     inkscape:pageopacity="0"
     inkscape:pageshadow="2"
     inkscape:window-width="1366"
     inkscape:window-height="744"
     id="namedview4"
     showgrid="false"
     inkscape:zoom="0.27676768"
     inkscape:cx="97.532195"
     inkscape:cy="27.430875"
     inkscape:window-x="0"
     inkscape:window-y="24"
     inkscape:window-maximized="1"
     inkscape:current-layer="g10"
     fit-margin-top="0"
     fit-margin-left="0"
     fit-margin-right="0"
     fit-margin-bottom="0" /><g
     id="g10"
     inkscape:groupmode="layer"
     inkscape:label="Logo"
     transform="matrix(1.25,0,0,-1.25,-334.23788,407.0195)"><g
       id="g12"><g
         id="g14"
         clip-path="url(#clipPath16)"><g
           id="g20"
           transform="translate(276.2563,316.749)"><path
             d="m 0,0 0,-6.834 51.258,0 c 0.924,0 1.738,0.324 2.448,0.97 0.706,0.646 1.062,1.462 1.062,2.448 0,0.923 -0.356,1.723 -1.062,2.399 C 52.996,-0.339 52.182,0 51.258,0 L 0,0 z m 50.888,8.866 c 1.724,0 3.341,-0.323 4.85,-0.97 1.508,-0.645 2.83,-1.523 3.97,-2.631 1.139,-1.109 2.032,-2.402 2.679,-3.879 0.646,-1.478 0.969,-3.079 0.969,-4.802 0,-1.726 -0.323,-3.325 -0.969,-4.803 -0.647,-1.478 -1.54,-2.771 -2.679,-3.88 -1.14,-1.107 -2.462,-1.986 -3.97,-2.631 -1.509,-0.647 -3.126,-0.97 -4.85,-0.97 L 0,-15.7 0,-26.968 c 0,-1.231 -0.446,-2.278 -1.338,-3.139 -0.893,-0.863 -1.926,-1.293 -3.096,-1.293 -1.231,0 -2.278,0.43 -3.139,1.293 -0.863,0.861 -1.293,1.908 -1.293,3.139 l 0,31.402 c 0,1.231 0.43,2.277 1.293,3.14 0.861,0.862 1.908,1.292 3.139,1.292 l 55.322,0 z"
             style="fill:#4c4c4c;fill-opacity:1;fill-rule:nonzero;stroke:none"
             id="path22"
             inkscape:connector-curvature="0" /></g><g
           id="g24"
           transform="translate(356.4204,286.6416)"><path
             d="m 0,0 c -0.862,-0.862 -1.909,-1.293 -3.14,-1.293 -1.231,0 -2.278,0.431 -3.139,1.293 -0.863,0.861 -1.293,1.908 -1.293,3.14 l 0,31.401 c 0,1.231 0.43,2.277 1.293,3.141 0.861,0.861 1.908,1.292 3.139,1.292 1.231,0 2.278,-0.431 3.14,-1.292 0.861,-0.864 1.294,-1.91 1.294,-3.141 l 0,-31.401 C 1.294,1.908 0.861,0.861 0,0"
             style="fill:#4c4c4c;fill-opacity:1;fill-rule:nonzero;stroke:none"
             id="path26"
             inkscape:connector-curvature="0" /></g><g
           id="g28"
           transform="translate(439.4473,317.6729)"><path
             d="m 0,0 c -3.139,-2.771 -6.033,-5.157 -8.68,-7.157 -2.648,-2.002 -5.142,-3.681 -7.48,-5.033 2.338,-1.356 4.801,-3.035 7.389,-5.034 2.583,-2.002 5.507,-4.386 8.771,-7.157 0.494,-0.432 0.908,-0.956 1.248,-1.57 0.336,-0.616 0.508,-1.263 0.508,-1.941 0,-1.231 -0.432,-2.278 -1.293,-3.139 -0.863,-0.863 -1.908,-1.293 -3.141,-1.293 -1.047,0 -2.093,0.43 -3.14,1.293 -3.942,3.448 -7.248,6.141 -9.928,8.082 -2.678,1.939 -5.08,3.37 -7.203,4.293 -2.123,0.924 -4.143,1.492 -6.049,1.71 -1.91,0.214 -4.065,0.322 -6.465,0.322 l -2.033,0 c -2.031,-0.063 -3.91,-0.23 -5.633,-0.508 -1.725,-0.277 -3.588,-0.909 -5.587,-1.893 -2.001,-0.987 -4.281,-2.432 -6.834,-4.339 -2.557,-1.91 -5.681,-4.466 -9.375,-7.667 -0.493,-0.369 -0.986,-0.679 -1.478,-0.924 -0.493,-0.247 -1.048,-0.369 -1.662,-0.369 -1.232,0 -2.278,0.43 -3.14,1.293 -0.863,0.861 -1.293,1.908 -1.293,3.139 0,0.678 0.168,1.325 0.507,1.941 0.339,0.614 0.754,1.138 1.247,1.57 3.14,2.771 6.035,5.139 8.683,7.111 2.645,1.969 5.139,3.631 7.48,4.987 -2.341,1.353 -4.819,3.032 -7.434,5.033 -2.619,2 -5.527,4.417 -8.729,7.25 -0.493,0.431 -0.908,0.954 -1.247,1.57 -0.339,0.615 -0.507,1.262 -0.507,1.94 0,1.231 0.43,2.277 1.293,3.14 0.862,0.862 1.908,1.292 3.14,1.292 0.614,0 1.169,-0.124 1.662,-0.37 0.492,-0.246 0.985,-0.552 1.478,-0.922 3.756,-3.325 6.927,-5.943 9.512,-7.85 2.587,-1.91 4.91,-3.341 6.974,-4.296 2.061,-0.954 4.001,-1.568 5.818,-1.846 1.816,-0.277 3.801,-0.416 5.957,-0.416 l 1.385,0 c 2.402,0 4.525,0.093 6.373,0.278 1.847,0.184 3.816,0.739 5.912,1.662 2.09,0.922 4.478,2.355 7.156,4.294 2.68,1.939 6.018,4.664 10.02,8.174 1.047,0.862 2.093,1.292 3.14,1.292 1.233,0 2.278,-0.43 3.141,-1.292 C 1.324,5.787 1.756,4.741 1.756,3.51 1.756,2.832 1.584,2.185 1.248,1.57 0.908,0.954 0.494,0.431 0,0"
             style="fill:#4c4c4c;fill-opacity:1;fill-rule:nonzero;stroke:none"
             id="path30"
             inkscape:connector-curvature="0" /></g><g
           id="g32"
           transform="translate(458.0117,286.6416)"><path
             d="m 0,0 c -0.863,-0.862 -1.91,-1.293 -3.141,-1.293 -1.232,0 -2.279,0.431 -3.14,1.293 -0.864,0.861 -1.293,1.908 -1.293,3.14 l 0,31.401 c 0,1.231 0.429,2.277 1.293,3.141 0.861,0.861 1.908,1.292 3.14,1.292 0.616,0 1.168,-0.124 1.662,-0.37 0.493,-0.247 0.985,-0.553 1.479,-0.922 3.939,-3.45 7.342,-6.159 10.205,-8.128 2.863,-1.972 5.481,-3.45 7.85,-4.434 2.369,-0.985 4.601,-1.601 6.697,-1.847 2.092,-0.246 4.338,-0.37 6.74,-0.37 2.401,0 4.631,0.107 6.696,0.325 2.062,0.214 4.25,0.815 6.556,1.8 2.311,0.984 4.897,2.462 7.76,4.433 2.863,1.97 6.293,4.71 10.299,8.221 1.045,0.861 2.09,1.292 3.138,1.292 1.231,0 2.278,-0.431 3.141,-1.292 0.859,-0.864 1.293,-1.91 1.293,-3.141 l 0,-31.401 c 0,-1.232 -0.434,-2.279 -1.293,-3.14 -0.863,-0.862 -1.91,-1.293 -3.141,-1.293 -1.232,0 -2.279,0.431 -3.138,1.293 -0.864,0.861 -1.295,1.908 -1.295,3.14 l 0,21.888 c -2.77,-2.217 -5.434,-4.063 -7.988,-5.542 -2.557,-1.477 -5.049,-2.664 -7.481,-3.555 -2.432,-0.894 -4.85,-1.524 -7.25,-1.893 -2.4,-0.369 -4.834,-0.554 -7.297,-0.554 -2.648,0 -5.187,0.185 -7.619,0.554 -2.434,0.369 -4.865,0.999 -7.297,1.893 -2.431,0.891 -4.894,2.078 -7.387,3.555 -2.494,1.479 -5.125,3.325 -7.898,5.542 l 0,-21.888 C 1.291,1.908 0.861,0.861 0,0"
             style="fill:#4c4c4c;fill-opacity:1;fill-rule:nonzero;stroke:none"
             id="path34"
             inkscape:connector-curvature="0" /></g><g
           id="g36"
           transform="translate(483.7793,289.7813)"><path
             d="M 0,0 C 0,1.602 0.553,2.956 1.66,4.064 2.77,5.174 4.123,5.727 5.725,5.727 7.326,5.727 8.68,5.174 9.787,4.064 10.898,2.956 11.451,1.602 11.451,0 11.451,-1.601 10.898,-2.954 9.787,-4.063 8.68,-5.171 7.326,-5.726 5.725,-5.726 4.123,-5.726 2.77,-5.171 1.66,-4.063 0.553,-2.954 0,-1.601 0,0"
             style="fill:#0d72b9;fill-opacity:1;fill-rule:nonzero;stroke:none"
             id="path38"
             inkscape:connector-curvature="0" /></g></g></g></g></svg>